# xmcd
#
# Track frame offsets: 
#        150
#        13575
#        49875
#        63713
#        77588
#        89100
#        101776
#        116850
#        131625
#        140250
#        153938
#        166876
#
# Disc length: 2408 seconds
#
# Revision: 0
# Processed by: cddbd v1.5.2PL0 Copyright (c) Steve Scherf et al.
# Submitted via: ExactAudioCopy v0.99pb3
#
DISCID=a509660c
DTITLE=Various Artist - Bluegrass Special
DYEAR=2010
DGENRE=Bluegrass
TTITLE0=The Grascals/Rollin' in my Sweet Baby's Arms
TTITLE1=Claire Lynch/Wabash Cannonball
TTITLE2=Blue Highway/Ain't Gonna Work Tomorrow
TTITLE3=Michael Cleveland/Lee Highway Blues
TTITLE4=Ricky Skaggs/River ofJordan
TTITLE5=Nashville Bluegrass Band/Little Maggie
TTITLE6=JD Crowe and the New South/Sally Goodin'
TTITLE7=IIIrd Time Out/Swing Low. Sweet Chariot
TTITLE8=Ralph Stanley/Cotton-Eyed Joe
TTITLE9=James King/Garden in the Sky
TTITLE10=Craig Smith with Laurie Lewis/My Old Knetucky Home
TTITLE11=Dailey and Vincent/Amazing Grace
EXTD=
EXTT0=
EXTT1=
EXTT2=
EXTT3=
EXTT4=
EXTT5=
EXTT6=
EXTT7=
EXTT8=
EXTT9=
EXTT10=
EXTT11=
PLAYORDER=
